<svg id="レイヤー_1" data-name="レイヤー 1" xmlns="http://www.w3.org/2000/svg" viewBox="0 0 300 100"><defs><style>.cls-1{fill:#9ae6b4;}</style></defs><text/><path class="cls-1" d="M13,83.87c0-2,.9-4.6.9-6.7,0-6.4-4.8-33.51-6.1-39a30.87,30.87,0,0,0-2.6-7.3,11.4,11.4,0,0,1-1.5-5.5c0-3.7,2.4-7.3,7.8-7.3,2.2,0,5.6.7,8.7.7,4.1,0,8.2-.7,11.9-.7,29.6,0,42.3,15.8,42.3,32.6,0,18-14.6,37.31-38.3,39.91a84.49,84.49,0,0,1-8.9.4C19,91,13,90.77,13,83.87Zm20.4-10.4c0,1.4.7,1.8,1.9,1.8,8.2,0,12.6-7.9,12.6-14.41,0-5.4-3.7-12-9.8-12-1.5,0-2.4,1-2.6,2.9C35.1,55.56,33.4,68.57,33.4,73.47Z"/><path class="cls-1" d="M140.7,54c0,9.1-7.1,17.71-20.7,17.71-2.6,0-6-.9-8.8-.9-.9,0-1.2.4-1.2,1.4,0,2.8,3.3,5.8,10,5.8,2.1,0,5-.7,7.3-.7,3.3,0,5.1,1.6,5.1,3.5,0,5.3-11.8,7.8-19.3,7.8-20.3,0-30.7-14.4-30.7-28.61,0-13.8,9.8-27.4,29.6-27.4C131.5,32.56,140.7,43.56,140.7,54Zm-22.9,4.5c0-2.8-2.5-5.1-6.1-5.1-3,0-4,2-4,5.1,0,2.7,1,5.1,3.8,5.1h.2C115.8,63.56,117.8,61.06,117.8,58.46Z"/><path class="cls-1" d="M175.3,28.66a29.23,29.23,0,0,1,17.9,6c2.4,1.9,7.1,3.2,9.9,3.5,3.1.4,5.6,2.9,5.6,5.4a3.78,3.78,0,0,1-1.1,2.7,44.56,44.56,0,0,0-7.6,12.4c-1.2,2.8-3.1,4.8-5.3,4.8-4.1,0-7.3-5.8-9.4-7.3-3-2.1-5.6-2.9-7.6-2.9-3.4,0-5.3,2.2-5.3,4.6,0,2.2,1.7,4.7,5.5,5.7,11.5,3,16.2,8.21,16.2,13.21,0,6.7-8.6,13-20.6,13-4.7,0-15.5-1.3-15.5-6,0-1.8,1.7-3.4,4.5-3.4,2.4,0,4,.9,6.9.9,2.7,0,5.4-.8,5.4-3.6,0-7.21-26.7-4.3-26.7-24.51C148.1,38.76,161,28.66,175.3,28.66Z"/><path class="cls-1" d="M247.5,56.86a134.9,134.9,0,0,0-.8,17.41c0,2.7.4,6,1.3,7a3.51,3.51,0,0,1,1.1,2.5c0,4.9-5.4,4.4-10.6,4.4h-6.4c-4,0-5.3-1.6-5.3-3.4,0-2.7,2-4.7,2-8,0-7.31-4-13.6-6.8-20a12.09,12.09,0,0,0-3.5-4.7,6,6,0,0,1-2.8-4.8c0-2.9,2.8-5.3,6.2-5.3,4,0,7.9.7,12.3.7,3.5,0,7.4-.3,11.4-.3,4.9,0,6.8,2.1,6.8,4.6C252.4,50.66,247.7,53,247.5,56.86Zm-17.1-19.8c-7.9,0-13.2-2.8-13.2-11.7,0-6.5,5.9-9.6,15.4-9.6,10.1,0,14.8,4.2,14.8,9.3C247.4,33.56,242.1,37.06,230.4,37.06Z"/><path class="cls-1" d="M291.2,56.86a134.9,134.9,0,0,0-.8,17.41c0,2.7.4,6,1.3,7a3.51,3.51,0,0,1,1.1,2.5c0,4.9-5.4,4.4-10.6,4.4h-6.4c-4,0-5.3-1.6-5.3-3.4,0-2.7,2-4.7,2-8,0-7.31-4-13.6-6.8-20a12.09,12.09,0,0,0-3.5-4.7,6,6,0,0,1-2.8-4.8c0-2.9,2.8-5.3,6.2-5.3,4,0,7.9.7,12.3.7,3.5,0,7.4-.3,11.4-.3,4.9,0,6.8,2.1,6.8,4.6C296.1,50.66,291.4,53,291.2,56.86Zm-17.1-19.8c-7.9,0-13.2-2.8-13.2-11.7,0-6.5,5.9-9.6,15.4-9.6,10.1,0,14.8,4.2,14.8,9.3C291.1,33.56,285.8,37.06,274.1,37.06Z"/></svg>
